<?xml version="1.0" standalone="no"?>
<!DOCTYPE svg PUBLIC "-//W3C//DTD SVG 20010904//EN"
 "http://www.w3.org/TR/2001/REC-SVG-20010904/DTD/svg10.dtd">
<svg version="1.0" xmlns="http://www.w3.org/2000/svg"
 width="16.000000pt" height="16.000000pt" viewBox="0 0 16.000000 16.000000"
 preserveAspectRatio="xMidYMid meet">
<metadata>
Created by potrace 1.11, written by Peter Selinger 2001-2013
</metadata>
<g transform="translate(0.000000,16.000000) scale(0.007843,-0.007843)"
fill="#000000" stroke="none">
<path d="M885 2024 c-259 -55 -453 -237 -531 -499 -24 -80 -25 -266 -2 -351
131 -477 688 -673 1085 -381 178 131 287 362 276 583 -17 316 -236 576 -548
649 -55 13 -219 13 -280 -1z m299 -21 c180 -42 362 -188 443 -356 54 -110 67
-170 67 -302 0 -103 -4 -131 -27 -200 -92 -278 -336 -464 -617 -468 -109 -2
-160 5 -246 33 -208 69 -374 253 -435 480 -28 104 -21 261 18 371 79 228 275
402 505 449 64 13 224 9 292 -7z"/>
<path d="M930 1999 c-161 -22 -323 -117 -425 -249 -96 -126 -136 -246 -136
-413 1 -280 177 -521 450 -614 94 -32 272 -41 361 -17 362 97 572 449 481 807
-48 185 -173 339 -343 421 -51 24 -115 49 -143 55 -64 15 -175 19 -245 10z"/>
<path d="M304 1658 c-98 -106 -160 -225 -182 -348 -11 -57 -9 -200 2 -260 l7
-35 -35 39 c-19 21 -42 57 -50 80 -16 46 -19 36 -17 -59 3 -107 48 -241 108
-321 l23 -31 -24 4 c-14 3 -43 20 -65 39 -21 19 -41 34 -44 34 -3 0 4 -24 15
-52 41 -108 120 -187 250 -249 59 -28 61 -29 23 -23 -22 3 -53 8 -70 11 -16 3
-53 13 -82 22 -58 19 -57 16 1 -47 90 -96 240 -172 378 -191 l53 -8 -30 -12
c-16 -7 -61 -15 -100 -18 -38 -3 -72 -7 -74 -9 -13 -12 120 -88 233 -134 155
-63 243 -83 381 -84 161 -1 241 14 381 70 112 45 297 153 264 155 -23 0 -93 9
-115 13 -11 3 -29 5 -41 5 -11 1 -28 7 -37 14 -14 10 -6 12 51 14 116 2 234
62 352 177 61 60 76 85 40 66 -19 -10 -200 -49 -200 -43 0 1 29 16 65 32 107
49 208 163 240 271 l7 25 -23 -22 c-26 -24 -98 -57 -106 -49 -3 2 9 22 25 43
72 90 114 216 108 323 -4 78 -6 80 -21 30 -8 -26 -30 -60 -50 -80 l-36 -35 8
45 c4 25 7 92 7 150 -2 134 -33 237 -104 342 -41 61 -150 183 -150 168 0 -3
13 -36 29 -75 44 -109 55 -170 55 -295 -1 -135 -17 -208 -74 -325 -70 -145
-180 -256 -329 -334 -144 -75 -273 -98 -432 -78 -128 15 -327 113 -419 205
-82 84 -165 217 -193 312 -33 110 -36 136 -33 240 5 135 20 198 72 303 13 26
22 47 20 47 -2 0 -30 -28 -62 -62z"/>
</g>
</svg>
